<mxfile host="app.diagrams.net" modified="2023-06-19T14:03:36.280Z" agent="Mozilla/5.0 (Windows NT 10.0; Win64; x64) AppleWebKit/537.36 (KHTML, like Gecko) Chrome/113.0.21244.127 Safari/537.36 Avast/113.0.21244.127" etag="YIVCR6jrmZhf29fH3FYR" version="21.4.0" type="github">
  <diagram name="Page-1" id="RlRBM_Sy_BQlGpR5zATb">
    <mxGraphModel dx="1032" dy="534" grid="0" gridSize="10" guides="1" tooltips="1" connect="1" arrows="1" fold="1" page="1" pageScale="1" pageWidth="850" pageHeight="1100" math="0" shadow="0">
      <root>
        <mxCell id="0" />
        <mxCell id="1" parent="0" />
        <mxCell id="zVgCPop4fBQCDsqx7CtH-1" value="Updates score" style="ellipse;whiteSpace=wrap;html=1;align=center;" vertex="1" parent="1">
          <mxGeometry x="429" y="360" width="100" height="40" as="geometry" />
        </mxCell>
        <mxCell id="zVgCPop4fBQCDsqx7CtH-2" value="Displays score" style="ellipse;whiteSpace=wrap;html=1;align=center;" vertex="1" parent="1">
          <mxGeometry x="425" y="452" width="100" height="40" as="geometry" />
        </mxCell>
        <mxCell id="zVgCPop4fBQCDsqx7CtH-3" value="Play Quiz" style="ellipse;whiteSpace=wrap;html=1;align=center;" vertex="1" parent="1">
          <mxGeometry x="230" y="326" width="100" height="40" as="geometry" />
        </mxCell>
        <mxCell id="zVgCPop4fBQCDsqx7CtH-4" value="Main Page" style="ellipse;whiteSpace=wrap;html=1;align=center;" vertex="1" parent="1">
          <mxGeometry x="226" y="190" width="100" height="40" as="geometry" />
        </mxCell>
        <mxCell id="zVgCPop4fBQCDsqx7CtH-6" value="Restart" style="ellipse;whiteSpace=wrap;html=1;align=center;" vertex="1" parent="1">
          <mxGeometry x="425" y="558" width="100" height="40" as="geometry" />
        </mxCell>
        <mxCell id="zVgCPop4fBQCDsqx7CtH-7" value="verifies answer" style="ellipse;whiteSpace=wrap;html=1;align=center;" vertex="1" parent="1">
          <mxGeometry x="433" y="272" width="100" height="40" as="geometry" />
        </mxCell>
        <mxCell id="zVgCPop4fBQCDsqx7CtH-11" value="Displays Question" style="ellipse;whiteSpace=wrap;html=1;align=center;" vertex="1" parent="1">
          <mxGeometry x="436" y="166" width="109" height="49" as="geometry" />
        </mxCell>
        <mxCell id="zVgCPop4fBQCDsqx7CtH-12" value="Restarts" style="ellipse;whiteSpace=wrap;html=1;align=center;" vertex="1" parent="1">
          <mxGeometry x="226" y="525" width="100" height="40" as="geometry" />
        </mxCell>
        <mxCell id="zVgCPop4fBQCDsqx7CtH-16" value="User" style="shape=umlActor;verticalLabelPosition=bottom;verticalAlign=top;html=1;outlineConnect=0;" vertex="1" parent="1">
          <mxGeometry x="67" y="309" width="30" height="60" as="geometry" />
        </mxCell>
        <mxCell id="zVgCPop4fBQCDsqx7CtH-17" value="DB" style="shape=cylinder3;whiteSpace=wrap;html=1;boundedLbl=1;backgroundOutline=1;size=15;" vertex="1" parent="1">
          <mxGeometry x="711" y="320" width="60" height="80" as="geometry" />
        </mxCell>
        <mxCell id="zVgCPop4fBQCDsqx7CtH-19" value="" style="endArrow=classic;html=1;rounded=0;exitX=0.67;exitY=0;exitDx=0;exitDy=0;exitPerimeter=0;entryX=0.229;entryY=0.898;entryDx=0;entryDy=0;entryPerimeter=0;" edge="1" parent="1" source="zVgCPop4fBQCDsqx7CtH-3" target="zVgCPop4fBQCDsqx7CtH-11">
          <mxGeometry width="50" height="50" relative="1" as="geometry">
            <mxPoint x="301" y="320" as="sourcePoint" />
            <mxPoint x="351" y="270" as="targetPoint" />
          </mxGeometry>
        </mxCell>
        <mxCell id="zVgCPop4fBQCDsqx7CtH-20" value="" style="endArrow=classic;html=1;rounded=0;entryX=1;entryY=0.825;entryDx=0;entryDy=0;entryPerimeter=0;" edge="1" parent="1" source="zVgCPop4fBQCDsqx7CtH-17" target="zVgCPop4fBQCDsqx7CtH-7">
          <mxGeometry width="50" height="50" relative="1" as="geometry">
            <mxPoint x="407" y="394" as="sourcePoint" />
            <mxPoint x="457" y="344" as="targetPoint" />
          </mxGeometry>
        </mxCell>
        <mxCell id="zVgCPop4fBQCDsqx7CtH-21" value="" style="endArrow=classic;html=1;rounded=0;exitX=0;exitY=0;exitDx=0;exitDy=52.5;exitPerimeter=0;entryX=1;entryY=0.5;entryDx=0;entryDy=0;" edge="1" parent="1" source="zVgCPop4fBQCDsqx7CtH-17" target="zVgCPop4fBQCDsqx7CtH-1">
          <mxGeometry width="50" height="50" relative="1" as="geometry">
            <mxPoint x="407" y="394" as="sourcePoint" />
            <mxPoint x="457" y="344" as="targetPoint" />
          </mxGeometry>
        </mxCell>
        <mxCell id="zVgCPop4fBQCDsqx7CtH-22" value="" style="endArrow=classic;html=1;rounded=0;exitX=0.07;exitY=0.25;exitDx=0;exitDy=0;exitPerimeter=0;entryX=0.75;entryY=0.95;entryDx=0;entryDy=0;entryPerimeter=0;" edge="1" parent="1" source="zVgCPop4fBQCDsqx7CtH-2" target="zVgCPop4fBQCDsqx7CtH-3">
          <mxGeometry width="50" height="50" relative="1" as="geometry">
            <mxPoint x="407" y="394" as="sourcePoint" />
            <mxPoint x="316" y="372" as="targetPoint" />
          </mxGeometry>
        </mxCell>
        <mxCell id="zVgCPop4fBQCDsqx7CtH-23" value="return" style="html=1;verticalAlign=bottom;endArrow=open;dashed=1;endSize=8;edgeStyle=elbowEdgeStyle;elbow=vertical;curved=0;rounded=0;exitX=0.56;exitY=1;exitDx=0;exitDy=0;exitPerimeter=0;" edge="1" parent="1" source="zVgCPop4fBQCDsqx7CtH-1">
          <mxGeometry relative="1" as="geometry">
            <mxPoint x="487" y="407" as="sourcePoint" />
            <mxPoint x="466" y="451" as="targetPoint" />
          </mxGeometry>
        </mxCell>
        <mxCell id="zVgCPop4fBQCDsqx7CtH-24" value="" style="endArrow=classic;html=1;rounded=0;entryX=0;entryY=0.175;entryDx=0;entryDy=0;entryPerimeter=0;" edge="1" parent="1" source="zVgCPop4fBQCDsqx7CtH-11" target="zVgCPop4fBQCDsqx7CtH-17">
          <mxGeometry width="50" height="50" relative="1" as="geometry">
            <mxPoint x="407" y="443" as="sourcePoint" />
            <mxPoint x="457" y="393" as="targetPoint" />
          </mxGeometry>
        </mxCell>
        <mxCell id="zVgCPop4fBQCDsqx7CtH-26" value="Repeats" style="html=1;verticalAlign=bottom;endArrow=open;dashed=1;endSize=8;edgeStyle=elbowEdgeStyle;elbow=vertical;curved=0;rounded=0;entryX=0.46;entryY=0.975;entryDx=0;entryDy=0;entryPerimeter=0;exitX=0.5;exitY=0;exitDx=0;exitDy=0;" edge="1" parent="1" source="zVgCPop4fBQCDsqx7CtH-12" target="zVgCPop4fBQCDsqx7CtH-3">
          <mxGeometry x="0.0127" y="-26" relative="1" as="geometry">
            <mxPoint x="276" y="524" as="sourcePoint" />
            <mxPoint x="276" y="368" as="targetPoint" />
            <mxPoint y="4" as="offset" />
          </mxGeometry>
        </mxCell>
        <mxCell id="zVgCPop4fBQCDsqx7CtH-27" value="" style="endArrow=classic;html=1;rounded=0;entryX=0.38;entryY=0.975;entryDx=0;entryDy=0;entryPerimeter=0;" edge="1" parent="1" target="zVgCPop4fBQCDsqx7CtH-4">
          <mxGeometry width="50" height="50" relative="1" as="geometry">
            <mxPoint x="104" y="356" as="sourcePoint" />
            <mxPoint x="457" y="319" as="targetPoint" />
          </mxGeometry>
        </mxCell>
        <mxCell id="zVgCPop4fBQCDsqx7CtH-28" value="" style="endArrow=classic;html=1;rounded=0;entryX=0.31;entryY=0.05;entryDx=0;entryDy=0;entryPerimeter=0;" edge="1" parent="1" target="zVgCPop4fBQCDsqx7CtH-12">
          <mxGeometry width="50" height="50" relative="1" as="geometry">
            <mxPoint x="112" y="369" as="sourcePoint" />
            <mxPoint x="231" y="515" as="targetPoint" />
          </mxGeometry>
        </mxCell>
        <mxCell id="zVgCPop4fBQCDsqx7CtH-29" value="" style="endArrow=classic;html=1;rounded=0;exitX=0.5;exitY=1;exitDx=0;exitDy=0;entryX=0.46;entryY=0;entryDx=0;entryDy=0;entryPerimeter=0;" edge="1" parent="1" source="zVgCPop4fBQCDsqx7CtH-4" target="zVgCPop4fBQCDsqx7CtH-3">
          <mxGeometry width="50" height="50" relative="1" as="geometry">
            <mxPoint x="295" y="298" as="sourcePoint" />
            <mxPoint x="345" y="248" as="targetPoint" />
          </mxGeometry>
        </mxCell>
        <mxCell id="zVgCPop4fBQCDsqx7CtH-30" value="" style="endArrow=classic;html=1;rounded=0;exitX=1.02;exitY=0.725;exitDx=0;exitDy=0;exitPerimeter=0;entryX=0;entryY=0.35;entryDx=0;entryDy=0;entryPerimeter=0;" edge="1" parent="1" source="zVgCPop4fBQCDsqx7CtH-12" target="zVgCPop4fBQCDsqx7CtH-6">
          <mxGeometry width="50" height="50" relative="1" as="geometry">
            <mxPoint x="407" y="424" as="sourcePoint" />
            <mxPoint x="457" y="374" as="targetPoint" />
          </mxGeometry>
        </mxCell>
        <mxCell id="zVgCPop4fBQCDsqx7CtH-31" value="" style="endArrow=classic;html=1;rounded=0;exitX=1;exitY=0;exitDx=0;exitDy=0;entryX=0;entryY=1;entryDx=0;entryDy=-15;entryPerimeter=0;" edge="1" parent="1" source="zVgCPop4fBQCDsqx7CtH-6" target="zVgCPop4fBQCDsqx7CtH-17">
          <mxGeometry width="50" height="50" relative="1" as="geometry">
            <mxPoint x="407" y="424" as="sourcePoint" />
            <mxPoint x="457" y="374" as="targetPoint" />
          </mxGeometry>
        </mxCell>
        <mxCell id="zVgCPop4fBQCDsqx7CtH-32" value="" style="endArrow=classic;html=1;rounded=0;exitX=0.5;exitY=1;exitDx=0;exitDy=0;" edge="1" parent="1" source="zVgCPop4fBQCDsqx7CtH-7">
          <mxGeometry width="50" height="50" relative="1" as="geometry">
            <mxPoint x="477" y="308" as="sourcePoint" />
            <mxPoint x="483" y="357" as="targetPoint" />
          </mxGeometry>
        </mxCell>
        <mxCell id="zVgCPop4fBQCDsqx7CtH-36" value="&lt;font style=&quot;font-size: 14px;&quot;&gt;Context Model&lt;/font&gt;" style="text;html=1;align=center;verticalAlign=middle;resizable=0;points=[];autosize=1;strokeColor=none;fillColor=none;" vertex="1" parent="1">
          <mxGeometry x="328" y="84" width="108" height="29" as="geometry" />
        </mxCell>
      </root>
    </mxGraphModel>
  </diagram>
</mxfile>
